. 
 
http://www.torrenting.com          :     Once & For all ;)


               www . Torrenting . Com 

(((((((((((((= Enjoy No RAR releases =))))))))))))))))))))


...................................NFO:....................................

.ooooo oooo   oooo oooooooo8 oooooooooo  o88   oooooooooo       o      ooooo       
 888   8888o  88 888         888    888 oooo   888    888     888      888        
 888   88 888o88  888oooooo  888oooo88   888   888oooo88     8  88     888        
 888   88   8888         888 888         888   888  88o     8oooo88    888      o 
o888o o88o    88 o88oooo888 o888o       o888o o888o  88o8 o88o  o888o o888ooooo88 

 
TITLE: 

Johnny English 2 Reborn 2011 BRRiP AC3 READNFO XViD - INSPiRAL

IMDB: 
 
http://www.imdb.com/title/tt1634122/


SOURCES:

VIDEO - Johnny English 2 Reborn 2011 Bluray 720p AC3 x264-Themole THANKS
AUDIO - Johnny English 2 Reborn 2011 Bluray 720p AC3 x264-Themole THANKS
SUBS  - None Add

STATS:

Video
ID                               : 0
Format                           : MPEG-4 Visual
Format profile                   : Advanced Simple@L5
Format settings, BVOP            : 2
Format settings, QPel            : No
Format settings, GMC             : No warppoints
Format settings, Matrix          : Default (MPEG)
Muxing mode                      : Packed bitstream
Codec ID                         : XVID
Codec ID/Hint                    : XviD
Duration                         : 1h 41mn
Bit rate                         : 1 707 Kbps
Width                            : 720 pixels
Height                           : 304 pixels
Display aspect ratio             : 2.35:1
Frame rate                       : 23.976 fps
Color space                      : YUV
Chroma subsampling               : 4:2:0
Bit depth                        : 8 bits
Scan type                        : Progressive
Compression mode                 : Lossy
Bits/(Pixel*Frame)               : 0.325
Stream size                      : 1.21 GiB (88%)
Writing library                  : XviD 64

Audio
ID                               : 1
Format                           : AC-3
Format/Info                      : Audio Coding 3
Mode extension                   : CM (complete main)
Codec ID                         : 2000
Duration                         : 1h 41mn
Bit rate mode                    : Constant
Bit rate                         : 224 Kbps
Channel(s)                       : 6 channels
Channel positions                : Front: L C R, Side: L R, LFE
Sampling rate                    : 48.0 KHz
Bit depth                        : 16 bits
Compression mode                 : Lossy
Stream size                      : 162 MiB (12%)
Alignment                        : Aligned on interleaves
Interleave, duration             : 42 ms (1.00 video frame)
Interleave, preload duration     : 512 ms



NOTES:

Right thanks for the release,gives us something to work with ....now for the moan.
Please stop rushing all you want be first to release encoders,sit back and do it properly FFS ...first 2 rips off this source
was fill of errors from bad res to plain crap encode,more than likely winavi 20min job.
Readnfo &lt;&lt;&lt;&lt;&lt; well source for a brrip was poor ...high res low bitrate and even the audio was only 224 bitrate instead of the normal
448 or 640 :(
Right onto work done ...dropped into megui and made a script to crop,resize,heavy noise filter and sharpness ....
Audio was just stripped and remuxed ,no upscaling the bitrate on it like some to bloat the encode up more and sound no different
what so ever :P


SCREENS:

[IMG]http://i.imgur.com/48ZTJ.png[/IMG]
[IMG]http://i.imgur.com/RVsMj.png[/IMG]
[IMG]http://i.imgur.com/jmiNT.png[/IMG]
[IMG]http://i.imgur.com/tUk6a.png[/IMG]
[IMG]http://i.imgur.com/5eqNI.png[/IMG]



GREETZ: 

Past,Present and Future